# xmcd
#
# Track frame offsets: 
#        150
#        13411
#        28058
#        41720
#        53978
#        67852
#        81997
#        92929
#        105621
#        116261
#        128153
#        139571
#        152552
#        167155
#        180750
#        194983
#        209354
#
# Disc length: 2967 seconds
#
# Revision: 1
# Processed by: cddbd v1.5.1PL0 Copyright (c) Steve Scherf et al.
# Submitted via: ExactAudioCopy v0.95b2
#
DISCID=eb0b9511
DTITLE=Erroll Garner - Honeysuckle Rose CD 3
DYEAR=2005
DGENRE=Jazz
TTITLE0=Take The 'A' Train
TTITLE1=Someone To Watch Over Me
TTITLE2=Tenderly
TTITLE3=Georgia On My Mind
TTITLE4=St. Louis Blues
TTITLE5=My Old Kentucky Home
TTITLE6=Erroll's Peril
TTITLE7=I'm Coming Virginia
TTITLE8=This Can't Be Love
TTITLE9=Moonglow
TTITLE10=She's Funny That Way
TTITLE11=Turquoise
TTITLE12=Impressions
TTITLE13=Blue And Sentimental
TTITLE14=I Can't Give You Anything But Love
TTITLE15=The Way You Look Tonight
TTITLE16=Confessin'
EXTD=
EXTT0=
EXTT1=
EXTT2=
EXTT3=
EXTT4=
EXTT5=
EXTT6=
EXTT7=
EXTT8=
EXTT9=
EXTT10=
EXTT11=
EXTT12=
EXTT13=
EXTT14=
EXTT15=
EXTT16=
PLAYORDER=
